       ----------==========HD Desi Rockers Releases==========----------


General
Complete name                    : Eagle Eye [2008] 1264x528 HD Hindi.mkv
Format                           : Matroska
File size                        : 1.31 GiB
Duration                         : 1h 52mn
Overall bit rate                 : 1 664 Kbps
Encoded date                     : UTC 2010-08-01 03:40:55
Writing application              : mkvmerge v4.1.1 ('Bouncin' Back') built on Jul  3 2010 22:54:08
Writing library                  : libebml v1.0.0 + libmatroska v1.0.0

Video
ID                               : 1
Format                           : AVC
Format/Info                      : Advanced Video Codec
Format profile                   : Main@L4.1
Format settings, CABAC           : Yes
Format settings, ReFrames        : 3 frames
Muxing mode                      : Container profile=Unknown@4.1
Codec ID                         : V_MPEG4/ISO/AVC
Duration                         : 1h 52mn
Bit rate                         : 1 559 Kbps
Width                            : 1 264 pixels
Height                           : 528 pixels
Display aspect ratio             : 2.35:1
Frame rate                       : 25.000 fps
Original frame rate              : 23.976 fps
Color space                      : YUV
Chroma subsampling               : 4:2:0
Bit depth                        : 8 bits
Scan type                        : Progressive
Bits/(Pixel*Frame)               : 0.093
Stream size                      : 1.23 GiB (94%)
Writing library                  : x264 core 68 r1183M f21daff

Audio
ID                               : 2
Format                           : MPEG Audio
Format version                   : Version 1
Format profile                   : Layer 3
Mode                             : Joint stereo
Mode extension                   : MS Stereo
Codec ID                         : A_MPEG/L3
Codec ID/Hint                    : MP3
Duration                         : 1h 52mn
Bit rate mode                    : Constant
Bit rate                         : 64.0 Kbps
Channel(s)                       : 2 channels
Sampling rate                    : 44.1 KHz
Video delay                      : 4s 700ms
Stream size                      : 51.6 MiB (4%)

